<svg width="239" height="304" viewBox="0 0 239 304" fill="none" xmlns="http://www.w3.org/2000/svg">
<path d="M187.821 0H0.84201V303.188H238.346V50.525L187.821 0Z" fill="#E4E4E4"/>
<path d="M195.64 25.263H0.84201V0H187.821L195.64 25.263Z" fill="#919592"/>
<path d="M187.821 50.525H238.346L187.821 0V50.525Z" fill="#D1D3D3"/>
<path d="M136.231 80.344H102.957V95.762H136.231V80.344Z" fill="#919593"/>
<path d="M176.875 80.344H143.602V95.762H176.875V80.344Z" fill="#919593"/>
<path d="M136.231 102.661H102.957V118.08H136.231V102.661Z" fill="#919593"/>
<path d="M95.274 80H62V95.418H95.274V80Z" fill="#919593"/>
<path d="M95.274 102.317H62V117.736H95.274V102.317Z" fill="#919593"/>
<path d="M176.875 102.661H143.602V118.08H176.875V102.661Z" fill="#919593"/>
<path d="M136.231 124.979H102.957V140.397H136.231V124.979Z" fill="#919593"/>
<path d="M176.875 124.979H143.602V140.397H176.875V124.979Z" fill="#919593"/>
<path d="M95.585 124.979H62.312V140.397H95.585V124.979Z" fill="#919593"/>
<path d="M136.231 147.298H102.957V162.716H136.231V147.298Z" fill="#919593"/>
<path d="M176.875 147.298H143.602V162.716H176.875V147.298Z" fill="#919593"/>
<path d="M95.585 147.298H62.312V162.716H95.585V147.298Z" fill="#919593"/>
</svg>
