<svg width="239" height="304" viewBox="0 0 239 304" fill="none" xmlns="http://www.w3.org/2000/svg">
<path d="M187.821 0H0.84198V303.188H238.346V50.525L187.821 0Z" fill="#E8E8E8"/>
<path d="M198.013 149.935C194.37 143.442 181.782 141.402 176.007 140.484C171.455 139.76 166.808 139.544 162.204 139.548C158.589 139.524 155.027 139.702 151.511 139.902C150.215 139.989 148.932 140.101 147.65 140.212C146.336 138.852 145.066 137.447 143.837 136.01C136.017 126.753 129.703 116.255 124.558 105.346C125.924 100.075 127.017 94.574 127.677 88.861C128.882 78.434 129.296 66.551 125.389 56.61C124.04 53.179 120.443 49.002 116.293 51.082C111.522 53.474 110.18 60.251 109.791 65.055C109.478 68.938 109.697 72.831 110.349 76.649C111.013 80.493 112.082 84.143 113.246 87.788C114.332 91.13 115.529 94.446 116.834 97.731C116.006 100.317 115.127 102.858 114.204 105.334C112.052 110.977 109.725 116.338 107.487 121.495C106.307 124.052 105.152 126.555 104.022 129.002C100.446 136.857 96.564 144.568 92.207 152.022C82.044 155.607 72.924 159.763 65.35 164.647C61.287 167.272 57.698 170.123 54.709 173.25C51.887 176.202 49.019 180.033 48.768 184.274C48.627 186.668 49.575 188.991 51.536 190.411C54.233 192.426 57.807 192.292 60.936 191.636C71.186 189.486 79.057 180.675 85.76 173.249C90.377 168.134 95.632 161.639 101.129 153.784C101.141 153.766 101.153 153.748 101.166 153.73C110.594 150.807 120.855 148.339 131.745 146.525C136.72 145.7 141.827 145.025 147.036 144.551C150.699 147.982 154.657 151.106 158.975 153.715C162.338 155.784 165.915 157.531 169.659 158.834C173.445 160.071 177.254 161.081 181.187 161.72C183.173 162.004 185.204 162.133 187.279 162.055C191.91 161.88 198.557 160.104 198.993 154.485C199.127 152.765 198.756 151.257 198.013 149.935ZM87.144 160.245C84.975 163.605 82.883 166.627 80.912 169.286C76.085 175.854 70.572 183.655 62.59 186.572C61.074 187.126 59.078 187.698 56.974 187.574C55.1 187.464 53.252 186.637 53.337 184.509C53.379 183.395 53.924 181.974 54.76 180.578C55.675 179.047 56.808 177.643 58.035 176.352C60.664 173.59 63.988 170.913 67.812 168.434C73.677 164.629 80.679 161.204 88.484 158.148C88.035 158.858 87.587 159.564 87.144 160.245ZM114.366 75.985C113.764 72.471 113.673 68.908 114.043 65.482C114.227 63.769 114.576 62.097 115.081 60.53C115.509 59.2 116.433 55.954 117.907 55.537C120.337 54.849 121.084 60.066 121.359 61.542C122.925 69.938 121.545 79.275 119.666 87.511C119.367 88.821 119.034 90.11 118.693 91.394C118.111 89.793 117.556 88.187 117.045 86.573C115.945 83.048 114.939 79.482 114.366 75.985ZM131.049 142.265C121.919 143.745 113.234 145.684 105.07 147.973C106.053 147.698 110.545 139.185 111.547 137.418C116.268 129.103 120.13 120.376 122.905 111.221C127.805 120.912 133.752 130.183 141.058 138.435C141.731 139.184 142.415 139.924 143.111 140.655C139.017 141.096 134.988 141.633 131.049 142.265ZM192.793 153.959C192.459 155.764 188.604 156.796 186.805 157.08C181.489 157.916 175.865 157.247 170.777 155.538C167.286 154.366 163.919 152.77 160.72 150.85C157.54 148.929 154.565 146.669 151.784 144.177C155.213 143.971 158.684 143.836 162.172 143.902C165.66 143.937 169.175 144.113 172.647 144.566C179.158 145.292 186.454 147.527 191.579 151.752C192.588 152.585 192.91 153.321 192.793 153.959Z" fill="#FB3449"/>
<path d="M195.64 25.263H0.84198V0H187.821L195.64 25.263Z" fill="#FB3449"/>
<path d="M94.841 241.152C94.841 246.513 93.261 250.653 90.099 253.573C86.937 256.494 82.447 257.954 76.627 257.954H72.984V273.871H60.022V225.892H76.628C82.688 225.892 87.239 227.216 90.28 229.863C93.321 232.51 94.841 236.273 94.841 241.152ZM72.985 247.387H75.348C77.295 247.387 78.843 246.841 79.992 245.746C81.141 244.652 81.715 243.142 81.715 241.217C81.715 237.979 79.921 236.36 76.333 236.36H72.985V247.387Z" fill="#A4A9AD"/>
<path d="M143.215 248.864C143.215 256.871 141.01 263.041 136.602 267.373C132.194 271.705 125.996 273.871 118.011 273.871H102.488V225.892H119.094C126.795 225.892 132.74 227.861 136.93 231.799C141.119 235.737 143.215 241.426 143.215 248.864ZM129.76 249.324C129.76 244.926 128.89 241.667 127.151 239.544C125.412 237.422 122.77 236.361 119.225 236.361H115.452V263.238H118.34C122.279 263.238 125.166 262.095 127.004 259.808C128.841 257.523 129.76 254.028 129.76 249.324Z" fill="#A4A9AD"/>
<path d="M164.579 273.871H151.813V225.892H180.168V236.295H164.579V245.451H178.953V255.854H164.579V273.871Z" fill="#A4A9AD"/>
<path d="M187.821 50.525H238.346L187.821 0V50.525Z" fill="#D1D3D3"/>
</svg>
