<svg width="318" height="405" viewBox="0 0 318 405" fill="none" xmlns="http://www.w3.org/2000/svg">
<path d="M317.68 67.3733V404.253H1V1.39229e-05H250.307L317.68 67.3733Z" fill="#E4E4E4"/>
<path d="M260.52 33.68H0.786682V1.218e-05H250.093L260.52 33.68Z" fill="#95A5A5"/>
<path d="M86.3334 202C86.3334 196.48 90.8134 192 96.3334 192H223C228.52 192 233 196.48 233 202C233 207.52 228.52 212 223 212H96.3334C90.8134 212 86.3334 207.52 86.3334 202Z" fill="#95A5A5"/>
<path d="M86.3334 167.333C86.3334 161.813 90.8134 157.333 96.3334 157.333H223C228.52 157.333 233 161.813 233 167.333C233 172.853 228.52 177.333 223 177.333H96.3334C90.8134 177.333 86.3334 172.853 86.3334 167.333Z" fill="#95A5A5"/>
<path d="M86.3334 132.667C86.3334 127.147 90.8134 122.667 96.3334 122.667H223C228.52 122.667 233 127.147 233 132.667C233 138.187 228.52 142.667 223 142.667H96.3334C90.8134 142.667 86.3334 138.187 86.3334 132.667Z" fill="#95A5A5"/>
<path d="M91.7543 310.068V299.727H132.841V310.068H118.622V347H105.973V310.068H91.7543ZM151.428 299.727L159.184 313.484H159.553L167.401 299.727H181.712L167.586 323.364L182.266 347H167.586L159.553 332.966H159.184L151.151 347H136.563L151.059 323.364L137.025 299.727H151.428ZM185.953 310.068V299.727H227.04V310.068H212.821V347H200.172V310.068H185.953Z" fill="#A4A9AD"/>
<path d="M250.093 2.43608e-05L317.467 67.3734H250.093V2.43608e-05Z" fill="#D1D3D3"/>
</svg>
