<svg width="239" height="304" viewBox="0 0 239 304" fill="none" xmlns="http://www.w3.org/2000/svg">
<path d="M187.979 0H1V303.188H238.504V50.525L187.979 0Z" fill="#E4E4E4"/>
<path d="M195.64 25.263H0.84198V0H187.821L195.64 25.263Z" fill="#007934"/>
<path d="M88.6052 228.455L93.6165 237.344H93.8552L98.9262 228.455H108.173L99.0455 243.727L108.531 259H99.0455L93.8552 249.932H93.6165L88.4262 259H79L88.3665 243.727L79.2983 228.455H88.6052ZM111.749 259V228.455H120.042V252.318H132.391V259H111.749ZM152.209 238C152.129 237.006 151.757 236.23 151.09 235.673C150.434 235.116 149.435 234.838 148.093 234.838C147.237 234.838 146.536 234.942 145.99 235.151C145.453 235.35 145.055 235.624 144.796 235.972C144.538 236.32 144.404 236.717 144.394 237.165C144.374 237.533 144.438 237.866 144.588 238.164C144.747 238.452 144.995 238.716 145.333 238.955C145.671 239.183 146.104 239.392 146.631 239.581C147.158 239.77 147.784 239.939 148.51 240.088L151.016 240.625C152.706 240.983 154.153 241.455 155.356 242.042C156.559 242.629 157.544 243.32 158.309 244.115C159.075 244.901 159.637 245.786 159.995 246.77C160.362 247.754 160.551 248.828 160.561 249.991C160.551 252 160.049 253.7 159.055 255.092C158.061 256.484 156.639 257.543 154.789 258.269C152.95 258.995 150.737 259.358 148.152 259.358C145.497 259.358 143.181 258.965 141.202 258.18C139.233 257.394 137.702 256.186 136.608 254.555C135.524 252.915 134.977 250.817 134.968 248.261H142.843C142.892 249.196 143.126 249.982 143.544 250.618C143.961 251.254 144.548 251.737 145.303 252.065C146.069 252.393 146.979 252.557 148.033 252.557C148.918 252.557 149.659 252.447 150.255 252.229C150.852 252.01 151.304 251.707 151.612 251.319C151.921 250.931 152.08 250.489 152.09 249.991C152.08 249.524 151.926 249.116 151.627 248.768C151.339 248.411 150.862 248.092 150.196 247.814C149.529 247.526 148.629 247.257 147.496 247.009L144.453 246.352C141.749 245.766 139.616 244.786 138.055 243.414C136.504 242.032 135.733 240.148 135.743 237.761C135.733 235.822 136.25 234.127 137.294 232.675C138.348 231.214 139.805 230.075 141.664 229.26C143.534 228.445 145.676 228.037 148.093 228.037C150.558 228.037 152.691 228.45 154.491 229.275C156.291 230.1 157.678 231.263 158.652 232.765C159.637 234.256 160.134 236.001 160.144 238H152.209Z" fill="#A4A9AD"/>
<path d="M187.821 50.525H238.346L187.821 0V50.525Z" fill="#D1D3D3"/>
<path d="M136.231 80.344H102.957V95.762H136.231V80.344Z" fill="#007934"/>
<path d="M176.875 80.344H143.602V95.762H176.875V80.344Z" fill="#007934"/>
<path d="M136.231 102.661H102.957V118.08H136.231V102.661Z" fill="#007934"/>
<path d="M176.875 102.661H143.602V118.08H176.875V102.661Z" fill="#007934"/>
<path d="M136.231 124.979H102.957V140.397H136.231V124.979Z" fill="#007934"/>
<path d="M176.875 124.979H143.602V140.397H176.875V124.979Z" fill="#007934"/>
<path d="M95.585 124.979H62.312V140.397H95.585V124.979Z" fill="#007934"/>
<path d="M136.231 147.298H102.957V162.716H136.231V147.298Z" fill="#007934"/>
<path d="M176.875 147.298H143.602V162.716H176.875V147.298Z" fill="#007934"/>
<path d="M95.585 147.298H62.312V162.716H95.585V147.298Z" fill="#007934"/>
<path d="M95.088 116.162H85.048L78.786 106.121L72.59 116.162H62.769L73.425 99.727L63.406 84.04H73.03L78.83 93.972L84.411 84.04H94.32L84.147 100.409L95.088 116.162Z" fill="#007934"/>
</svg>
