<svg width="239" height="304" viewBox="0 0 239 304" fill="none" xmlns="http://www.w3.org/2000/svg">
<path d="M187.821 0H0.84201V303.188H238.346V50.525L187.821 0Z" fill="#E4E4E4"/>
<path d="M195.64 25.263H0.84201V0H187.821L195.64 25.263Z" fill="#007934"/>
<path d="M73.858 228.455L78.8693 237.344H79.108L84.179 228.455H93.4261L84.2983 243.727L93.7841 259H84.2983L79.108 249.932H78.8693L73.679 259H64.2528L73.6193 243.727L64.5511 228.455H73.858ZM97.002 259V228.455H105.295V252.318H117.644V259H97.002ZM137.462 238C137.382 237.006 137.01 236.23 136.343 235.673C135.687 235.116 134.688 234.838 133.346 234.838C132.49 234.838 131.789 234.942 131.243 235.151C130.706 235.35 130.308 235.624 130.049 235.972C129.791 236.32 129.657 236.717 129.647 237.165C129.627 237.533 129.691 237.866 129.841 238.164C130 238.452 130.248 238.716 130.586 238.955C130.924 239.183 131.357 239.392 131.884 239.581C132.411 239.77 133.037 239.939 133.763 240.088L136.269 240.625C137.959 240.983 139.406 241.455 140.609 242.042C141.812 242.629 142.797 243.32 143.562 244.115C144.328 244.901 144.89 245.786 145.248 246.77C145.615 247.754 145.804 248.828 145.814 249.991C145.804 252 145.302 253.7 144.308 255.092C143.314 256.484 141.892 257.543 140.042 258.269C138.203 258.995 135.99 259.358 133.405 259.358C130.75 259.358 128.434 258.965 126.455 258.18C124.486 257.394 122.955 256.186 121.861 254.555C120.777 252.915 120.23 250.817 120.221 248.261H128.096C128.145 249.196 128.379 249.982 128.797 250.618C129.214 251.254 129.801 251.737 130.556 252.065C131.322 252.393 132.232 252.557 133.286 252.557C134.171 252.557 134.912 252.447 135.508 252.229C136.105 252.01 136.557 251.707 136.865 251.319C137.174 250.931 137.333 250.489 137.343 249.991C137.333 249.524 137.179 249.116 136.88 248.768C136.592 248.411 136.115 248.092 135.449 247.814C134.782 247.526 133.882 247.257 132.749 247.009L129.706 246.352C127.002 245.766 124.869 244.786 123.308 243.414C121.757 242.032 120.986 240.148 120.996 237.761C120.986 235.822 121.503 234.127 122.547 232.675C123.601 231.214 125.058 230.075 126.917 229.26C128.787 228.445 130.929 228.037 133.346 228.037C135.811 228.037 137.944 228.45 139.744 229.275C141.544 230.1 142.931 231.263 143.905 232.765C144.89 234.256 145.387 236.001 145.397 238H137.462ZM157.858 228.455L162.869 237.344H163.108L168.179 228.455H177.426L168.298 243.727L177.784 259H168.298L163.108 249.932H162.869L157.679 259H148.253L157.619 243.727L148.551 228.455H157.858Z" fill="#A4A9AD"/>
<path d="M187.821 50.525H238.346L187.821 0V50.525Z" fill="#D1D3D3"/>
<path d="M136.231 80.344H102.957V95.762H136.231V80.344Z" fill="#007934"/>
<path d="M176.875 80.344H143.602V95.762H176.875V80.344Z" fill="#007934"/>
<path d="M136.231 102.661H102.957V118.08H136.231V102.661Z" fill="#007934"/>
<path d="M176.875 102.661H143.602V118.08H176.875V102.661Z" fill="#007934"/>
<path d="M136.231 124.979H102.957V140.397H136.231V124.979Z" fill="#007934"/>
<path d="M176.875 124.979H143.602V140.397H176.875V124.979Z" fill="#007934"/>
<path d="M95.585 124.979H62.312V140.397H95.585V124.979Z" fill="#007934"/>
<path d="M136.231 147.298H102.957V162.716H136.231V147.298Z" fill="#007934"/>
<path d="M176.875 147.298H143.602V162.716H176.875V147.298Z" fill="#007934"/>
<path d="M95.585 147.298H62.312V162.716H95.585V147.298Z" fill="#007934"/>
<path d="M95.088 116.162H85.048L78.786 106.121L72.59 116.162H62.769L73.425 99.727L63.406 84.04H73.03L78.83 93.972L84.411 84.04H94.32L84.147 100.409L95.088 116.162Z" fill="#007934"/>
</svg>
